<svg width="29" height="28" viewBox="0 0 29 28" fill="none" xmlns="http://www.w3.org/2000/svg">
<path fill-rule="evenodd" clip-rule="evenodd" d="M6.45703 20.0058C6.45703 17.8212 11.4226 16.0518 17.5497 16.0518C23.6768 16.0518 28.644 17.8212 28.644 20.0058V23.6385C28.644 25.8231 23.6768 27.5926 17.5497 27.5926C11.4226 27.5926 6.45703 25.8232 6.45703 23.6385V20.0058Z" fill="#F7C538"/>
<path fill-rule="evenodd" clip-rule="evenodd" d="M17.5497 16.0518C23.6767 16.0518 28.644 17.8212 28.644 20.0058C28.644 22.1887 23.6768 23.9598 17.5497 23.9598C11.4226 23.9598 6.45703 22.1888 6.45703 20.0058C6.45703 17.8212 11.4226 16.0518 17.5497 16.0518Z" fill="#FFE27A"/>
<path fill-rule="evenodd" clip-rule="evenodd" d="M17.5496 16.0518C19.4146 16.0518 21.1725 16.2149 22.7146 16.5048V16.7668C22.7146 18.9514 17.7474 20.7208 11.6219 20.7208C9.76683 20.7208 8.01884 20.5594 6.48173 20.2727C6.46534 20.1847 6.45707 20.0953 6.45703 20.0058C6.45697 17.8212 11.4225 16.0518 17.5496 16.0518Z" fill="#CEA732"/>
<path fill-rule="evenodd" clip-rule="evenodd" d="M17.5483 17.8984C22.4233 17.8984 26.374 18.8425 26.374 20.0056C26.374 21.1688 22.4233 22.1111 17.5483 22.1111C12.675 22.1111 8.72266 21.1687 8.72266 20.0056C8.72266 18.8425 12.675 17.8984 17.5483 17.8984Z" fill="#FFBA57"/>
<path fill-rule="evenodd" clip-rule="evenodd" d="M17.5483 17.8984C19.1629 17.8984 20.6769 18.0023 21.9801 18.1835C20.3804 19.6678 16.3457 20.7206 11.6206 20.7206C10.754 20.7206 9.91217 20.686 9.10323 20.6185C8.8561 20.4241 8.72266 20.2182 8.72266 20.0056C8.72266 18.8425 12.675 17.8984 17.5483 17.8984Z" fill="#CE8829"/>
<path fill-rule="evenodd" clip-rule="evenodd" d="M0.527344 12.1849C0.527344 10.0003 5.49456 8.22925 11.6217 8.22925C17.7471 8.22925 22.7143 10.0003 22.7143 12.1849V15.8177C22.7143 18.0006 17.7471 19.7717 11.6217 19.7717C5.49456 19.7717 0.527344 18.0006 0.527344 15.8177V12.1849Z" fill="#F7C538"/>
<path fill-rule="evenodd" clip-rule="evenodd" d="M11.6217 8.22925C17.7471 8.22925 22.7143 10.0003 22.7143 12.1849C22.7143 14.3678 17.7471 16.1389 11.6217 16.1389C5.49456 16.1389 0.527344 14.3679 0.527344 12.1849C0.527344 10.0003 5.49456 8.22925 11.6217 8.22925Z" fill="#FFE27A"/>
<path fill-rule="evenodd" clip-rule="evenodd" d="M11.621 8.22925C17.7464 8.22925 22.7137 10.0003 22.7137 12.1849C22.7137 12.3991 22.6659 12.6099 22.572 12.8159C21.4006 12.9493 20.1518 13.0202 18.8552 13.0202C12.0922 13.0202 6.60938 11.0663 6.60938 8.65598C8.11347 8.3841 9.81693 8.22925 11.621 8.22925Z" fill="#CEA732"/>
<path fill-rule="evenodd" clip-rule="evenodd" d="M11.6226 10.0776C16.4959 10.0776 20.4482 11.0217 20.4482 12.1848C20.4482 13.3479 16.4959 14.2903 11.6226 14.2903C6.74762 14.2903 2.79688 13.3479 2.79688 12.1848C2.79688 11.0217 6.74756 10.0776 11.6226 10.0776Z" fill="#FFBA57"/>
<path fill-rule="evenodd" clip-rule="evenodd" d="M11.6197 10.0776C16.493 10.0776 20.4454 11.0217 20.4454 12.1848C20.4454 12.4764 20.195 12.7565 19.742 13.0085C19.4487 13.0168 19.1522 13.0201 18.8539 13.0201C13.7417 13.0201 9.36267 11.9047 7.52734 10.3181C8.7514 10.1649 10.1419 10.0776 11.6197 10.0776Z" fill="#CE8829"/>
<path fill-rule="evenodd" clip-rule="evenodd" d="M6.45703 4.36247C6.45703 2.17954 11.4226 0.408447 17.5497 0.408447C23.6768 0.408447 28.644 2.17949 28.644 4.36247V7.99688C28.644 10.1798 23.6768 11.9509 17.5497 11.9509C11.4226 11.9509 6.45703 10.1799 6.45703 7.99688V4.36247Z" fill="#F7C538"/>
<path fill-rule="evenodd" clip-rule="evenodd" d="M17.5497 0.408447C23.6767 0.408447 28.644 2.17949 28.644 4.36247C28.644 6.54704 23.6768 8.31814 17.5497 8.31814C11.4226 8.31814 6.45703 6.54704 6.45703 4.36247C6.45703 2.17954 11.4226 0.408447 17.5497 0.408447Z" fill="#FFE27A"/>
<path fill-rule="evenodd" clip-rule="evenodd" d="M17.5483 2.25708C22.4233 2.25708 26.374 3.19947 26.374 4.36258C26.374 5.5274 22.4233 6.46973 17.5483 6.46973C12.675 6.46973 8.72266 5.52734 8.72266 4.36258C8.72266 3.19947 12.675 2.25708 17.5483 2.25708Z" fill="#FFBA57"/>
</svg>
