<svg width="64" height="64" viewBox="0 0 64 64" fill="none" xmlns="http://www.w3.org/2000/svg">
<rect width="64" height="64" rx="16" fill="#84BEF1"/>
<path d="M18.269 24.766C17.192 25.8967 16.8384 26.2765 16.2731 26.9258C14.7471 28.6703 13.7538 30.108 13.0861 31.5279C12.03 33.7782 11.8741 35.7657 12.6348 37.2055C13.0326 37.9563 13.7305 38.6387 14.5284 39.0539C15.0704 39.3365 15.852 39.5596 16.622 39.6501C17.0338 39.6987 18.1969 39.6855 18.704 39.628C20.2324 39.4514 21.8142 39.0473 23.6124 38.3759C24.3359 38.1065 24.6011 37.9983 37.2792 32.8485C53.1094 26.4178 57.6805 24.5562 57.5991 24.5739C57.52 24.5893 57.2176 24.6666 41.4781 28.6372C30.9937 31.2828 26.925 32.3097 25.0082 32.7889C24.0963 33.0185 23.4892 33.1289 22.6122 33.2239C22.4563 33.2416 22.0794 33.2526 21.6468 33.2504C20.8651 33.2504 20.5511 33.2195 20.0137 33.0892C19.267 32.9103 18.7459 32.6387 18.2202 32.1595C17.4874 31.4904 17.1082 30.6954 17.0175 29.642C16.9477 28.8448 17.1268 27.7782 17.4944 26.7712C17.7666 26.0336 18.2504 25.0531 18.6738 24.3906C18.6994 24.3531 18.7133 24.3199 18.7064 24.3199C18.7017 24.3199 18.504 24.5209 18.269 24.766Z" fill="white"/>
</svg>
