<svg width="32" height="32" viewBox="0 0 32 32" fill="none" xmlns="http://www.w3.org/2000/svg">
<g clip-path="url(#clip0_2951_9737)">
<path d="M15.169 5.53565C15.7187 5.6222 16.2785 5.6222 16.8281 5.53565L22.5374 4.63667C25.7738 4.12706 28.7003 6.62877 28.7003 9.90509V20.7755C28.7003 22.7579 27.6008 24.5767 25.8456 25.4979L18.4772 29.3653C16.9252 30.1799 15.072 30.1799 13.52 29.3653L6.1516 25.4979C4.39634 24.5767 3.29688 22.7579 3.29688 20.7755V9.9051C3.29688 6.62877 6.22333 4.12706 9.45977 4.63667L15.169 5.53565Z" fill="#614BCB"/>
<path d="M15.0951 3.02779C15.693 3.13058 16.3041 3.13058 16.9021 3.02779L22.4634 2.07183C25.7223 1.51165 28.7003 4.02142 28.7003 7.32808V18.6998C28.7003 20.6606 27.6244 22.4633 25.8985 23.3941L18.5302 27.3678C16.95 28.22 15.0472 28.22 13.467 27.3678L6.09864 23.3941C4.37281 22.4633 3.29688 20.6607 3.29688 18.6998V7.32808C3.29688 4.02142 6.27486 1.51165 9.53372 2.07183L15.0951 3.02779Z" fill="#7B62F4"/>
<mask id="mask0_2951_9737" style="mask-type:alpha" maskUnits="userSpaceOnUse" x="0" y="-1" width="32" height="33">
<path d="M32 -0.000244141H0V31.9998L32 -0.000244141Z" fill="#D9D9D9"/>
</mask>
<g mask="url(#mask0_2951_9737)">
<path d="M14.7726 6.37696C15.5788 6.56738 16.4183 6.56738 17.2245 6.37696L22.141 5.21574C25.4899 4.42476 28.7003 6.9652 28.7003 10.4063V20.7758C28.7003 22.7581 27.6008 24.5769 25.8456 25.4982L18.4772 29.3656C16.9252 30.1802 15.072 30.1802 13.52 29.3656L6.1516 25.4982C4.39634 24.5769 3.29688 22.7581 3.29688 20.7758V10.4063C3.29688 6.9652 6.50724 4.42476 9.85615 5.21574L14.7726 6.37696Z" fill="#8475CD"/>
<path d="M15.0951 3.02779C15.693 3.13058 16.3041 3.13058 16.9021 3.02779L22.4634 2.07183C25.7223 1.51165 28.7003 4.02142 28.7003 7.32808V18.6998C28.7003 20.6606 27.6244 22.4633 25.8985 23.3941L18.5302 27.3678C16.95 28.22 15.0472 28.22 13.467 27.3678L6.09864 23.3941C4.37281 22.4633 3.29688 20.6607 3.29688 18.6998V7.32808C3.29688 4.02142 6.27486 1.51165 9.53372 2.07183L15.0951 3.02779Z" fill="#9A88F3"/>
</g>
<g clip-path="url(#clip1_2951_9737)">
<path d="M22.006 13.7684C22.1427 13.635 22.2393 13.466 22.2849 13.2806C22.3305 13.0951 22.3234 12.9006 22.2642 12.719C22.205 12.5374 22.0962 12.376 21.95 12.2531C21.8039 12.1301 21.6263 12.0505 21.4372 12.0232L18.39 11.5809C18.3664 11.5774 18.3439 11.5682 18.3246 11.5541C18.3052 11.54 18.2896 11.5214 18.2789 11.5L16.9174 8.73718C16.8331 8.56591 16.7024 8.42168 16.5403 8.32082C16.3782 8.21996 16.1911 8.1665 16.0002 8.1665C15.8093 8.1665 15.6222 8.21996 15.4601 8.32082C15.298 8.42168 15.1673 8.56591 15.083 8.73718L13.718 11.5009C13.7074 11.5224 13.6918 11.541 13.6724 11.5551C13.6531 11.5692 13.6306 11.5784 13.6068 11.5818L10.5583 12.0246C10.3697 12.0522 10.1925 12.132 10.0467 12.255C9.90101 12.378 9.79257 12.5392 9.73365 12.7206C9.67473 12.902 9.66767 13.0962 9.71329 13.2813C9.7589 13.4665 9.85536 13.6352 9.99179 13.7684L12.1972 15.9183C12.2147 15.9349 12.2278 15.9556 12.2355 15.9785C12.2431 16.0014 12.245 16.0258 12.241 16.0496L11.7203 19.0854C11.688 19.2735 11.709 19.467 11.7809 19.6439C11.8528 19.8207 11.9728 19.9739 12.1272 20.0862C12.2817 20.1984 12.4645 20.2651 12.6549 20.2788C12.8454 20.2926 13.0358 20.2527 13.2048 20.1638L15.9313 18.7301C15.9524 18.7188 15.976 18.7129 16 18.7129C16.0239 18.7129 16.0475 18.7188 16.0687 18.7301L18.7956 20.1634C18.9645 20.2522 19.155 20.2919 19.3453 20.2781C19.5357 20.2643 19.7184 20.1976 19.8728 20.0854C20.0272 19.9732 20.1471 19.82 20.219 19.6432C20.2909 19.4664 20.3119 19.273 20.2796 19.0849L19.759 16.0491C19.755 16.0253 19.757 16.0009 19.7646 15.9781C19.7722 15.9552 19.7853 15.9345 19.8027 15.9179L22.006 13.7684Z" fill="#614BCB"/>
<path d="M22.006 13.0377C22.1427 12.9043 22.2393 12.7353 22.2849 12.5499C22.3305 12.3644 22.3234 12.1699 22.2642 11.9883C22.205 11.8067 22.0962 11.6453 21.95 11.5223C21.8039 11.3994 21.6263 11.3198 21.4372 11.2925L18.39 10.8502C18.3664 10.8467 18.3439 10.8374 18.3246 10.8234C18.3052 10.8093 18.2896 10.7907 18.2789 10.7693L16.9174 8.00647C16.8331 7.8352 16.7024 7.69096 16.5403 7.59011C16.3782 7.48925 16.1911 7.43579 16.0002 7.43579C15.8093 7.43579 15.6222 7.48925 15.4601 7.59011C15.298 7.69096 15.1673 7.8352 15.083 8.00647L13.718 10.7702C13.7074 10.7917 13.6918 10.8103 13.6724 10.8244C13.6531 10.8385 13.6306 10.8476 13.6068 10.8511L10.5583 11.2938C10.3697 11.3215 10.1925 11.4013 10.0467 11.5243C9.90101 11.6472 9.79257 11.8085 9.73365 11.9899C9.67473 12.1712 9.66767 12.3655 9.71329 12.5506C9.7589 12.7358 9.85536 12.9045 9.99179 13.0377L12.1972 15.1876C12.2147 15.2042 12.2278 15.2249 12.2355 15.2478C12.2431 15.2706 12.245 15.2951 12.241 15.3188L11.7203 18.3547C11.688 18.5428 11.709 18.7363 11.7809 18.9131C11.8528 19.09 11.9728 19.2432 12.1272 19.3554C12.2817 19.4677 12.4645 19.5344 12.6549 19.5481C12.8454 19.5619 13.0358 19.522 13.2048 19.4331L15.9313 17.9994C15.9524 17.9881 15.976 17.9822 16 17.9822C16.0239 17.9822 16.0475 17.9881 16.0687 17.9994L18.7956 19.4327C18.9645 19.5214 19.155 19.5612 19.3453 19.5474C19.5357 19.5336 19.7184 19.4669 19.8728 19.3547C20.0272 19.2425 20.1471 19.0893 20.219 18.9125C20.2909 18.7357 20.3119 18.5423 20.2796 18.3542L19.759 15.3184C19.755 15.2946 19.757 15.2702 19.7646 15.2474C19.7722 15.2245 19.7853 15.2038 19.8027 15.1872L22.006 13.0377Z" fill="white"/>
</g>
</g>
<defs>
<clipPath id="clip0_2951_9737">
<rect width="32" height="32" fill="white"/>
</clipPath>
<clipPath id="clip1_2951_9737">
<rect width="14" height="14" fill="white" transform="translate(8.99609 6.99976)"/>
</clipPath>
</defs>
</svg>
