<svg width="20" height="20" viewBox="0 0 20 20" fill="none" xmlns="http://www.w3.org/2000/svg">
<g clip-path="url(#clip0_4842_182)">
<path d="M10 0C4.47301 0 0 4.4725 0 10C0 15.5269 4.4725 20 10 20C15.527 20 20 15.5275 20 10C20 4.47309 15.5275 0 10 0ZM10 18.6046C5.25539 18.6046 1.39535 14.7446 1.39535 10C1.39535 5.25535 5.25539 1.39535 10 1.39535C14.7446 1.39535 18.6046 5.25535 18.6046 10C18.6046 14.7446 14.7446 18.6046 10 18.6046Z" fill="#101010"/>
<path d="M10.0012 8.33575C9.40887 8.33575 8.98766 8.58591 8.98766 8.95446V13.9695C8.98766 14.2855 9.40887 14.6013 10.0012 14.6013C10.5672 14.6013 11.0279 14.2855 11.0279 13.9695V8.95438C11.0279 8.58587 10.5672 8.33575 10.0012 8.33575ZM10.0012 5.24243C9.3957 5.24243 8.92188 5.67681 8.92188 6.177C8.92188 6.67724 9.39574 7.12478 10.0012 7.12478C10.5936 7.12478 11.0675 6.67724 11.0675 6.177C11.0675 5.67681 10.5935 5.24243 10.0012 5.24243Z" fill="#101010"/>
</g>
<defs>
<clipPath id="clip0_4842_182">
<rect width="20" height="20" fill="white"/>
</clipPath>
</defs>
</svg>
