<svg width="64" height="64" viewBox="0 0 64 64" fill="none" xmlns="http://www.w3.org/2000/svg">
<rect width="64" height="64" rx="16" fill="#FF7478"/>
<path d="M21.0916 39.1434C21.0916 39.9605 20.4288 40.6185 19.6063 40.6185C18.7837 40.6185 18.1214 39.9605 18.1214 39.1434C18.1214 38.3262 18.7611 37.6682 19.6063 37.6682C20.4521 37.6909 21.0916 38.3491 21.0916 39.1434ZM14.9686 42.1168V42.4801C14.9686 42.4801 14.2606 41.5717 12.7527 41.5717C10.2627 41.5717 8.32041 43.4557 8.32041 46.0657C8.32041 48.6532 10.2398 50.5597 12.7527 50.5597C14.2834 50.5597 14.9686 49.6291 14.9686 49.6291V50.0148C14.9686 50.1964 15.106 50.3322 15.2886 50.3322H17.1388V41.798H15.2886C15.106 41.7987 14.9686 41.9579 14.9686 42.1168ZM14.9686 47.5864C14.6262 48.0859 13.9406 48.5172 13.1183 48.5172C11.6563 48.5172 10.5366 47.6093 10.5366 46.0657C10.5366 44.5223 11.6563 43.6144 13.1183 43.6144C13.918 43.6144 14.6491 44.0684 14.9686 44.545V47.5864ZM18.5098 41.7987H20.7029V50.3329H18.5098V41.7987ZM51.2714 41.5715C49.7635 41.5715 49.0551 42.4798 49.0551 42.4798V37.6909H46.862V50.3329H48.7127C48.8955 50.3329 49.0322 50.174 49.0322 50.015V49.6293C49.0322 49.6293 49.7407 50.5599 51.2481 50.5599C53.7386 50.5599 55.6804 48.6539 55.6804 46.0664C55.6804 43.4788 53.7386 41.5715 51.2714 41.5715ZM50.9058 48.4943C50.0602 48.4943 49.3979 48.0635 49.0551 47.5638V44.5223C49.3979 44.0684 50.1289 43.5918 50.9058 43.5918C52.3679 43.5918 53.4873 44.4996 53.4873 46.043C53.4873 47.5864 52.3681 48.4943 50.9058 48.4943ZM45.7199 45.2717V50.3556H43.5264V45.5211C43.5264 44.1142 43.0694 43.5464 41.8365 43.5464C41.1742 43.5464 40.4886 43.887 40.0538 44.3865V50.3331H37.8612V41.7989H39.5969C39.7797 41.7989 39.9169 41.9579 39.9169 42.1168V42.4801C40.5566 41.8216 41.4017 41.5717 42.2469 41.5717C43.2066 41.5717 44.0063 41.8445 44.6461 42.3891C45.4225 43.0247 45.7199 43.8416 45.7199 45.2717ZM32.5372 41.5715C31.0297 41.5715 30.3213 42.4798 30.3213 42.4798V37.6909H28.1282V50.3329H29.9785C30.1613 50.3329 30.2985 50.174 30.2985 50.015V49.6293C30.2985 49.6293 31.0069 50.5599 32.5144 50.5599C35.0049 50.5599 36.9467 48.6539 36.9467 46.0664C36.9695 43.4786 35.0277 41.5715 32.5372 41.5715ZM32.1716 48.4943C31.3265 48.4943 30.6641 48.0635 30.3213 47.5638V44.5223C30.6641 44.0684 31.3951 43.5918 32.1716 43.5918C33.6341 43.5918 34.7533 44.4996 34.7533 46.043C34.7533 47.5864 33.6341 48.4943 32.1716 48.4943ZM26.2318 41.5715C26.8942 41.5715 27.237 41.6853 27.237 41.6853V43.7051C27.237 43.7051 25.4093 43.0923 24.2672 44.3862V50.3554H22.0737V41.7987H23.9244C24.1072 41.7987 24.2439 41.9577 24.2439 42.1166V42.4798C24.6557 42.003 25.5467 41.5715 26.2318 41.5715ZM43.0343 26.9949C42.9202 26.7225 42.8058 26.4276 42.6917 26.1777C42.5087 25.7693 42.3259 25.3832 42.1663 25.0202L42.1435 24.9975C40.5669 21.5928 38.8766 18.1432 37.0943 14.739L37.0259 14.6025C36.8384 14.2493 36.6557 13.8937 36.4779 13.5357C36.2492 13.1269 36.021 12.6961 35.6553 12.2872C34.9243 11.3794 33.8733 10.8799 32.754 10.8799C31.6115 10.8799 30.5836 11.3794 29.8299 12.2417C29.4871 12.65 29.2356 13.0813 29.0074 13.4901C28.8291 13.8479 28.6464 14.2035 28.4594 14.5569L28.3907 14.6934C26.6315 18.0976 24.9181 21.5475 23.3417 24.9519L23.3187 24.9971C23.1589 25.3608 22.9759 25.7464 22.7931 26.1546C22.679 26.4044 22.5648 26.6767 22.4507 26.9717C22.1536 27.8113 22.062 28.6058 22.1766 29.4232C22.4279 31.1256 23.57 32.5549 25.1466 33.1909C25.7407 33.4408 26.3576 33.5542 26.9971 33.5542C27.1799 33.5542 27.4082 33.5315 27.5912 33.5086C28.3453 33.4179 29.122 33.1685 29.876 32.7372C30.8127 32.215 31.7037 31.4664 32.7089 30.3769C33.714 31.4664 34.6278 32.215 35.5417 32.7372C36.296 33.1685 37.0724 33.4179 37.8263 33.5086C38.0091 33.5317 38.2378 33.5542 38.4206 33.5542C39.0603 33.5542 39.6998 33.4408 40.2709 33.1909C41.8703 32.5549 42.9896 31.1029 43.2411 29.4232C43.4225 28.629 43.3312 27.8349 43.0343 26.9949ZM32.731 28.175C31.4972 26.6316 30.6974 25.1791 30.4236 23.9538C30.3094 23.4317 30.2864 22.9777 30.3551 22.5692C30.4005 22.2059 30.5379 21.888 30.7207 21.6157C31.1548 21.0033 31.8859 20.6172 32.7312 20.6172C33.5768 20.6172 34.3307 20.9804 34.7419 21.6157C34.9248 21.888 35.0617 22.2061 35.1078 22.5692C35.176 22.978 35.1532 23.4543 35.0391 23.9538C34.7641 25.1565 33.9644 26.6092 32.731 28.175ZM41.8461 29.2418C41.6864 30.422 40.8866 31.4437 39.7674 31.8976C39.2192 32.1244 38.6249 32.1926 38.0312 32.1244C37.4602 32.0561 36.8887 31.8745 36.2951 31.5344C35.4725 31.08 34.6502 30.3769 33.6905 29.3325C35.1982 27.4944 36.112 25.8145 36.4548 24.3169C36.6148 23.6131 36.6379 22.9777 36.5689 22.3873C36.4779 21.82 36.272 21.2978 35.9523 20.8439C35.2436 19.8222 34.0554 19.2325 32.7308 19.2325C31.4061 19.2325 30.2179 19.8453 29.5097 20.8439C29.19 21.2978 28.9841 21.82 28.8928 22.3873C28.8015 22.9777 28.8241 23.6357 29.0069 24.3169C29.3495 25.8145 30.2862 27.5168 31.771 29.3552C30.8344 30.3993 29.989 31.1031 29.1665 31.5571C28.5724 31.8976 28.0016 32.0792 27.4305 32.147C26.8138 32.2153 26.2195 32.1244 25.6941 31.9203C24.5749 31.4664 23.7752 30.4447 23.6154 29.2645C23.5469 28.6972 23.5923 28.1299 23.821 27.4944C23.8893 27.2672 24.0038 27.0404 24.118 26.7681C24.278 26.4049 24.4603 26.0188 24.6434 25.6331L24.6664 25.5879C26.2426 22.2059 27.9331 18.7561 29.6923 15.3972L29.7608 15.2607C29.9438 14.9206 30.1266 14.5574 30.3092 14.2168C30.492 13.8536 30.6974 13.513 30.949 13.2178C31.4287 12.6736 32.0682 12.3782 32.7766 12.3782C33.4851 12.3782 34.1246 12.6736 34.6043 13.2178C34.8558 13.5137 35.0612 13.8542 35.2441 14.2168C35.4271 14.5574 35.6099 14.9206 35.7923 15.2607L35.861 15.3972C37.5934 18.77 39.2614 22.1751 40.8643 25.6106V25.6333C41.0473 25.997 41.2071 26.4051 41.3899 26.7688C41.504 27.0407 41.6183 27.2674 41.6868 27.4946C41.8692 28.0841 41.9376 28.6519 41.8461 29.2418Z" fill="white"/>
</svg>
