<svg width="32" height="32" viewBox="0 0 32 32" fill="none" xmlns="http://www.w3.org/2000/svg">
<g clip-path="url(#clip0_2951_9723)">
<path d="M15.1729 5.53613C15.7226 5.62268 16.2824 5.62268 16.832 5.53613L22.5413 4.63716C25.7777 4.12755 28.7042 6.62926 28.7042 9.90558V20.776C28.7042 22.7584 27.6047 24.5772 25.8495 25.4984L18.4811 29.3658C16.9291 30.1804 15.0759 30.1804 13.5239 29.3658L6.1555 25.4984C4.40025 24.5772 3.30078 22.7584 3.30078 20.776V9.90558C3.30078 6.62926 6.22723 4.12755 9.46368 4.63716L15.1729 5.53613Z" fill="#306AAE"/>
<path d="M15.099 3.02803C15.6969 3.13082 16.308 3.13082 16.906 3.02803L22.4673 2.07207C25.7262 1.5119 28.7042 4.02166 28.7042 7.32832V18.7001C28.7042 20.6609 27.6283 22.4636 25.9024 23.3943L18.5341 27.368C16.9539 28.2202 15.0511 28.2202 13.4709 27.368L6.10254 23.3943C4.37672 22.4636 3.30078 20.6609 3.30078 18.7001V7.32832C3.30078 4.02167 6.27877 1.5119 9.53763 2.07208L15.099 3.02803Z" fill="#1E7CEA"/>
<mask id="mask0_2951_9723" style="mask-type:alpha" maskUnits="userSpaceOnUse" x="0" y="0" width="32" height="32">
<path d="M32 0H0V32L32 0Z" fill="#D9D9D9"/>
</mask>
<g mask="url(#mask0_2951_9723)">
<path d="M14.7726 6.3772C15.5788 6.56762 16.4183 6.56762 17.2245 6.3772L22.141 5.21598C25.4899 4.425 28.7003 6.96544 28.7003 10.4065V20.776C28.7003 22.7584 27.6008 24.5772 25.8456 25.4984L18.4772 29.3658C16.9252 30.1804 15.072 30.1804 13.52 29.3658L6.1516 25.4984C4.39634 24.5772 3.29688 22.7584 3.29688 20.776V10.4065C3.29688 6.96545 6.50724 4.425 9.85615 5.21598L14.7726 6.3772Z" fill="#457FC2"/>
<path d="M15.0951 3.02803C15.693 3.13082 16.3041 3.13082 16.9021 3.02803L22.4634 2.07207C25.7223 1.5119 28.7003 4.02166 28.7003 7.32832V18.7001C28.7003 20.6609 27.6244 22.4636 25.8985 23.3943L18.5302 27.368C16.95 28.2202 15.0472 28.2202 13.467 27.368L6.09864 23.3943C4.37281 22.4636 3.29688 20.6609 3.29688 18.7001V7.32832C3.29688 4.02167 6.27486 1.5119 9.53372 2.07208L15.0951 3.02803Z" fill="#3F93F4"/>
</g>
<g clip-path="url(#clip1_2951_9723)">
<path d="M22.0099 13.7687C22.1466 13.6353 22.2432 13.4663 22.2888 13.2808C22.3345 13.0954 22.3273 12.9008 22.2681 12.7193C22.2089 12.5377 22.1001 12.3763 21.954 12.2533C21.8078 12.1303 21.6302 12.0507 21.4411 12.0235L18.3939 11.5812C18.3703 11.5776 18.3478 11.5684 18.3285 11.5543C18.3091 11.5402 18.2935 11.5217 18.2828 11.5002L16.9213 8.73742C16.837 8.56615 16.7063 8.42192 16.5442 8.32106C16.3821 8.2202 16.195 8.16675 16.0041 8.16675C15.8132 8.16675 15.6261 8.2202 15.464 8.32106C15.3019 8.42192 15.1712 8.56615 15.0869 8.73742L13.7219 11.5011C13.7113 11.5226 13.6957 11.5412 13.6763 11.5553C13.657 11.5694 13.6345 11.5786 13.6108 11.582L10.5623 12.0248C10.3736 12.0524 10.1964 12.1322 10.0506 12.2552C9.90492 12.3782 9.79647 12.5395 9.73755 12.7208C9.67863 12.9022 9.67158 13.0964 9.71719 13.2816C9.76281 13.4667 9.85927 13.6354 9.99569 13.7687L12.2011 15.9185C12.2186 15.9352 12.2317 15.9558 12.2394 15.9787C12.247 16.0016 12.2489 16.026 12.2449 16.0498L11.7243 19.0856C11.6919 19.2738 11.7129 19.4672 11.7848 19.6441C11.8567 19.821 11.9767 19.9742 12.1311 20.0864C12.2856 20.1986 12.4684 20.2654 12.6588 20.2791C12.8493 20.2928 13.0397 20.253 13.2087 20.164L15.9352 18.7304C15.9563 18.7191 15.9799 18.7132 16.0039 18.7132C16.0278 18.7132 16.0514 18.7191 16.0726 18.7304L18.7995 20.1636C18.9685 20.2524 19.1589 20.2922 19.3492 20.2784C19.5396 20.2646 19.7223 20.1978 19.8767 20.0856C20.0311 19.9734 20.151 19.8203 20.2229 19.6435C20.2948 19.4667 20.3158 19.2733 20.2835 19.0852L19.7629 16.0494C19.759 16.0256 19.7609 16.0012 19.7685 15.9783C19.7761 15.9555 19.7892 15.9348 19.8066 15.9181L22.0099 13.7687Z" fill="#306AAE"/>
<path d="M22.0099 13.0377C22.1466 12.9043 22.2432 12.7353 22.2888 12.5499C22.3345 12.3644 22.3273 12.1699 22.2681 11.9883C22.2089 11.8067 22.1001 11.6453 21.954 11.5223C21.8078 11.3994 21.6302 11.3198 21.4411 11.2925L18.3939 10.8502C18.3703 10.8467 18.3478 10.8374 18.3285 10.8234C18.3091 10.8093 18.2935 10.7907 18.2828 10.7693L16.9213 8.00647C16.837 7.8352 16.7063 7.69096 16.5442 7.59011C16.3821 7.48925 16.195 7.43579 16.0041 7.43579C15.8132 7.43579 15.6261 7.48925 15.464 7.59011C15.3019 7.69096 15.1712 7.8352 15.0869 8.00647L13.7219 10.7702C13.7113 10.7917 13.6957 10.8103 13.6763 10.8244C13.657 10.8385 13.6345 10.8476 13.6108 10.8511L10.5623 11.2938C10.3736 11.3215 10.1964 11.4013 10.0506 11.5243C9.90492 11.6472 9.79647 11.8085 9.73755 11.9899C9.67863 12.1712 9.67158 12.3655 9.71719 12.5506C9.76281 12.7358 9.85927 12.9045 9.99569 13.0377L12.2011 15.1876C12.2186 15.2042 12.2317 15.2249 12.2394 15.2478C12.247 15.2706 12.2489 15.2951 12.2449 15.3188L11.7243 18.3547C11.6919 18.5428 11.7129 18.7363 11.7848 18.9131C11.8567 19.09 11.9767 19.2432 12.1311 19.3554C12.2856 19.4677 12.4684 19.5344 12.6588 19.5481C12.8493 19.5619 13.0397 19.522 13.2087 19.4331L15.9352 17.9994C15.9563 17.9881 15.9799 17.9822 16.0039 17.9822C16.0278 17.9822 16.0514 17.9881 16.0726 17.9994L18.7995 19.4327C18.9685 19.5214 19.1589 19.5612 19.3492 19.5474C19.5396 19.5336 19.7223 19.4669 19.8767 19.3547C20.0311 19.2425 20.151 19.0893 20.2229 18.9125C20.2948 18.7357 20.3158 18.5423 20.2835 18.3542L19.7629 15.3184C19.759 15.2946 19.7609 15.2702 19.7685 15.2474C19.7761 15.2245 19.7892 15.2038 19.8066 15.1872L22.0099 13.0377Z" fill="white"/>
</g>
</g>
<defs>
<clipPath id="clip0_2951_9723">
<rect width="32" height="32" fill="white"/>
</clipPath>
<clipPath id="clip1_2951_9723">
<rect width="14" height="14" fill="white" transform="translate(9 7)"/>
</clipPath>
</defs>
</svg>
