<svg width="24" height="24" viewBox="0 0 24 24" fill="none" xmlns="http://www.w3.org/2000/svg">
<g clip-path="url(#clip0_2951_9896)">
<mask id="mask0_2951_9896" style="mask-type:alpha" maskUnits="userSpaceOnUse" x="-2" y="-3" width="27" height="27">
<rect x="3.78516" y="-2.39746" width="21.3333" height="21.3333" transform="rotate(15 3.78516 -2.39746)" fill="#D9D9D9"/>
</mask>
<g mask="url(#mask0_2951_9896)">
<path d="M13.241 22.2307L17.2065 23.2933C17.6051 23.4001 18.0297 23.3442 18.3871 23.1378C18.7444 22.9315 19.0052 22.5917 19.112 22.1931L20.0595 18.6569C20.0919 18.5335 20.0934 18.404 20.064 18.2799C20.0345 18.1557 19.975 18.0408 19.8907 17.9451C19.8063 17.8493 19.6997 17.7759 19.5803 17.7311C19.4608 17.6863 19.3322 17.6715 19.2057 17.6882C18.9099 17.7268 18.6095 17.7068 18.3215 17.6294C17.0788 17.2964 16.3466 15.9828 16.6896 14.7026C17.0327 13.4224 18.3236 12.6509 19.5662 12.9839C19.8544 13.0608 20.1246 13.1938 20.3614 13.3751C20.4631 13.4532 20.5826 13.5048 20.7091 13.5256C20.8357 13.5463 20.9654 13.5354 21.0867 13.4939C21.208 13.4523 21.3172 13.3815 21.4045 13.2876C21.4918 13.1937 21.5546 13.0796 21.5872 12.9556L22.5347 9.41931C22.6415 9.02074 22.5856 8.59607 22.3793 8.23872C22.173 7.88138 21.8331 7.62062 21.4346 7.51383L18.0326 6.60227C18.08 6.48128 18.1205 6.35769 18.1539 6.23211C18.3942 5.33533 18.2684 4.37983 17.8042 3.5758C17.34 2.77177 16.5754 2.18507 15.6787 1.94478C14.7819 1.70449 13.8264 1.83029 13.0223 2.29449C12.2183 2.7587 11.6316 3.5233 11.3913 4.42007C11.3575 4.54554 11.3308 4.67282 11.3113 4.80131L7.90937 3.88976C7.5108 3.78296 7.08613 3.83887 6.72879 4.04519C6.37144 4.2515 6.11069 4.59132 6.0039 4.98989L5.19301 8.01616C5.07202 7.96875 4.94843 7.92824 4.82285 7.89483C3.92607 7.65454 2.97057 7.78033 2.16654 8.24454C1.36251 8.70875 0.775822 9.47334 0.535532 10.3701C0.295242 11.2669 0.421037 12.2224 0.885243 13.0264C1.34945 13.8305 2.11404 14.4172 3.01082 14.6574C3.13628 14.6913 3.26357 14.718 3.39206 14.7375L2.58117 17.7637C2.47438 18.1623 2.53029 18.587 2.7366 18.9443C2.94291 19.3017 3.28273 19.5624 3.6813 19.6692L7.64682 20.7318" fill="#3AA08E"/>
<path d="M13.5789 20.9318L17.5444 21.9944C17.943 22.1012 18.367 22.0479 18.723 21.8463C19.0791 21.6448 19.3382 21.3114 19.4432 20.9195L20.3748 17.4426C20.9923 15.0881 21.1821 14.4811 21.8768 11.8371L22.8084 8.36024C22.9134 7.96837 22.8558 7.55012 22.6482 7.19751C22.4406 6.8449 22.1001 6.58681 21.7015 6.48001L18.2995 5.56846C18.3464 5.44956 18.3863 5.32808 18.4192 5.2046C18.6554 4.32289 18.5258 3.38183 18.0587 2.58846C17.5916 1.79508 16.8254 1.21437 15.9287 0.97408C15.0319 0.733789 14.078 0.853599 13.2768 1.30715C12.4756 1.76071 11.8928 2.51085 11.6566 3.39257C11.6233 3.51593 11.5971 3.6411 11.5782 3.7675L8.17628 2.85594C7.77771 2.74915 7.35376 2.80239 6.99768 3.00397C6.6416 3.20555 6.38257 3.53895 6.27757 3.93083L5.48031 6.90626C5.35925 6.85909 5.23563 6.81869 5.11005 6.78527C4.21328 6.54498 3.25938 6.66479 2.4582 7.11835C1.65703 7.5719 1.07421 8.32205 0.837958 9.20376C0.601704 10.0855 0.731371 11.0265 1.19843 11.8199C1.66549 12.6133 2.43169 13.194 3.32846 13.4343C3.45393 13.4681 3.58118 13.495 3.70961 13.5146L2.91235 16.4901C2.80735 16.8819 2.86498 17.3002 3.07256 17.6528C3.28014 18.0054 3.62067 18.2635 4.01924 18.3703L7.98476 19.4329" fill="#4ABDA9"/>
<mask id="mask1_2951_9896" style="mask-type:alpha" maskUnits="userSpaceOnUse" x="-3" y="-3" width="30" height="25">
<path d="M26.9635 3.81249L3.78125 -2.39917L-2.43041 20.783L-1.14251 21.1281L26.9635 3.81249Z" fill="#D9D9D9"/>
</mask>
<g mask="url(#mask1_2951_9896)">
<path d="M13.241 22.2312L17.2065 23.2938C17.6051 23.4006 18.0297 23.3446 18.3871 23.1383C18.7444 22.932 19.0052 22.5922 19.112 22.1936L20.0595 18.6573C20.0919 18.5339 20.0934 18.4045 20.064 18.2804C20.0345 18.1562 19.975 18.0412 19.8907 17.9455C19.8063 17.8498 19.6997 17.7763 19.5803 17.7315C19.4608 17.6868 19.3322 17.672 19.2057 17.6886C18.9099 17.7273 18.6095 17.7073 18.3215 17.6299C17.0788 17.2969 16.3466 15.9833 16.6896 14.7031C17.0327 13.4229 18.3236 12.6514 19.5662 12.9844C19.8544 13.0613 20.1246 13.1943 20.3614 13.3756C20.4631 13.4536 20.5826 13.5053 20.7091 13.526C20.8357 13.5468 20.9654 13.5359 21.0867 13.4944C21.208 13.4528 21.3172 13.382 21.4045 13.2881C21.4918 13.1941 21.5546 13.0801 21.5872 12.9561L22.5347 9.41979C22.6415 9.02123 22.5856 8.59656 22.3793 8.23921C22.173 7.88186 21.8331 7.62111 21.4346 7.51432L18.0326 6.60276C18.08 6.48177 18.1205 6.35818 18.1539 6.2326C18.3942 5.33582 18.2684 4.38031 17.8042 3.57628C17.34 2.77225 16.5754 2.18556 15.6787 1.94527C14.7819 1.70498 13.8264 1.83078 13.0223 2.29498C12.2183 2.75919 11.6316 3.52378 11.3913 4.42056C11.3575 4.54603 11.3308 4.67331 11.3113 4.8018L7.90937 3.89025C7.5108 3.78345 7.08613 3.83936 6.72879 4.04567C6.37144 4.25199 6.11069 4.59181 6.0039 4.99038L5.19301 8.01665C5.07202 7.96924 4.94843 7.92873 4.82285 7.89532C3.92607 7.65503 2.97057 7.78082 2.16654 8.24503C1.36251 8.70924 0.775822 9.47383 0.535532 10.3706C0.295242 11.2674 0.421037 12.2229 0.885243 13.0269C1.34945 13.831 2.11404 14.4176 3.01082 14.6579C3.13628 14.6918 3.26357 14.7185 3.39206 14.7379L2.58117 17.7642C2.47438 18.1628 2.53029 18.5874 2.7366 18.9448C2.94291 19.3021 3.28273 19.5629 3.6813 19.6697L7.64682 20.7322" fill="#44AE9C"/>
<path d="M13.575 20.9308L17.5405 21.9934C17.9391 22.1002 18.3631 22.0469 18.7191 21.8454C19.0752 21.6438 19.3342 21.3104 19.4393 20.9185L20.3709 17.4416C20.9884 15.0871 21.1782 14.4801 21.8729 11.8361L22.8045 8.35927C22.9095 7.96739 22.8518 7.54915 22.6443 7.19653C22.4367 6.84392 22.0962 6.58583 21.6976 6.47903L18.2956 5.56748C18.3425 5.44858 18.3824 5.3271 18.4153 5.20363C18.6515 4.32191 18.5218 3.38086 18.0548 2.58748C17.5877 1.7941 16.8215 1.21339 15.9248 0.973103C15.028 0.732813 14.0741 0.852623 13.2729 1.30618C12.4717 1.75973 11.8889 2.50988 11.6527 3.39159C11.6194 3.51495 11.5932 3.64012 11.5743 3.76652L8.17238 2.85496C7.77381 2.74817 7.34985 2.80142 6.99378 3.003C6.6377 3.20458 6.37867 3.53798 6.27367 3.92985L5.4764 6.90528C5.35535 6.85811 5.23173 6.81772 5.10615 6.7843C4.20937 6.54401 3.25547 6.66382 2.4543 7.11737C1.65313 7.57093 1.0703 8.32107 0.834051 9.20279C0.597798 10.0845 0.727465 11.0256 1.19453 11.8189C1.66159 12.6123 2.42778 13.193 3.32456 13.4333C3.45003 13.4672 3.57728 13.494 3.7057 13.5137L2.90844 16.4891C2.80344 16.881 2.86107 17.2992 3.06865 17.6518C3.27624 18.0044 3.61677 18.2625 4.01533 18.3693L7.98085 19.4319" fill="#46CBB4"/>
</g>
<path fill-rule="evenodd" clip-rule="evenodd" d="M16.1414 10.7228C15.8825 10.2744 15.3091 10.1208 14.8607 10.3796C14.8412 10.3909 14.8224 10.4033 14.8044 10.4168L11.7683 12.6944L10.8695 11.1376C10.6106 10.6892 10.0373 10.5356 9.58887 10.7945C9.14047 11.0534 8.98684 11.6267 9.24572 12.0751L10.6492 14.5061C10.9081 14.9545 11.4815 15.1081 11.9299 14.8492C11.9478 14.8388 11.9652 14.8275 11.9819 14.8152L15.8307 11.9838C16.2539 11.7163 16.3939 11.1602 16.1414 10.7228ZM15.0482 10.7044C15.3173 10.5491 15.6613 10.6413 15.8166 10.9103C15.8943 11.0449 15.9101 11.1983 15.8727 11.3375C15.8759 11.2364 15.8518 11.1332 15.7975 11.0391C15.6422 10.7701 15.2982 10.6779 15.0291 10.8333C15.0226 10.837 15.0164 10.8411 15.0104 10.8456L11.6359 13.377L10.5257 11.454C10.3704 11.185 10.0263 11.0928 9.7573 11.2481C9.62288 11.3257 9.53262 11.4504 9.4953 11.5893C9.50119 11.4012 9.60136 11.2203 9.77637 11.1193C10.0454 10.9639 10.3894 11.0561 10.5448 11.3251L11.655 13.2482L15.0294 10.7168C15.0354 10.7123 15.0417 10.7082 15.0482 10.7044Z" fill="#3AA08E"/>
<path fill-rule="evenodd" clip-rule="evenodd" d="M16.3289 10.1027C16.07 9.65428 15.4966 9.50065 15.0482 9.75953C15.0287 9.77078 15.0099 9.7832 14.9919 9.7967L11.9558 12.0743L11.057 10.5175C10.7981 10.0691 10.2248 9.91549 9.77637 10.1744C9.32797 10.4333 9.17434 11.0066 9.43322 11.455L10.8367 13.8859C11.0956 14.3343 11.669 14.488 12.1174 14.2291C12.1353 14.2187 12.1527 14.2073 12.1694 14.195L16.0182 11.3637C16.4414 11.0962 16.5814 10.54 16.3289 10.1027ZM15.2357 10.0843C15.5048 9.92896 15.8488 10.0211 16.0041 10.2902C16.0245 10.3256 16.0407 10.3622 16.0527 10.3996C16.0407 10.3627 16.0247 10.3265 16.0046 10.2916C15.8492 10.0225 15.5052 9.93037 15.2362 10.0857C15.2297 10.0895 15.2234 10.0936 15.2174 10.0981L11.843 12.6295L10.7327 10.7064C10.5774 10.4374 10.2334 10.3452 9.96433 10.5005C9.7306 10.6355 9.63036 10.9128 9.7099 11.1597C9.62952 10.9125 9.7297 10.6343 9.96387 10.4991C10.2329 10.3438 10.5769 10.436 10.7323 10.705L11.8425 12.628L15.2169 10.0967C15.2229 10.0922 15.2292 10.088 15.2357 10.0843Z" fill="white"/>
</g>
</g>
<defs>
<clipPath id="clip0_2951_9896">
<rect width="24" height="24" fill="white" transform="matrix(1 0 1.17103e-06 1 0 0)"/>
</clipPath>
</defs>
</svg>
